                                                                        S      1
,,,20HToolHolderAdapter_v2,22HAutodesk Inventor 2018,7Hunknown,32,38,7, G      1
99,15,,1.,1,4HINCH,1,0.08,15H20190925.124601,0.000393700787401575,      G      2
10000.,9Hsshanbhag,,11,0,15H20190924.185201;                            G      3
     186       1                                                00000000D      1
     186             -73       1       0                               0D      2
     514       2                                                00010000D      3
     514                       1       1                               0D      4
     510       3                                                00010000D      5
     510             -73       1       1                               0D      6
     510       4                                                00010000D      7
     510             -73       1       1                               0D      8
     510       5                                                00010000D      9
     510             -73       1       1                               0D     10
     510       6                                                00010000D     11
     510             -73       1       1                               0D     12
     510       7                                                00010000D     13
     510             -73       1       1                               0D     14
     508       8                                                00010000D     15
     508                       2       1                               0D     16
     508      10                                                00010000D     17
     508                       1       1                               0D     18
     508      11                                                00010000D     19
     508                       1       1                               0D     20
     508      12                                                00010000D     21
     508                       1       1                               0D     22
     508      13                                                00010000D     23
     508                       1       1                               0D     24
     508      14                                                00010000D     25
     508                       1       1                               0D     26
     508      15                                                00010000D     27
     508                       1       1                               0D     28
     508      16                                                00010000D     29
     508                       1       1                               0D     30
     508      17                                                00010000D     31
     508                       1       1                               0D     32
     126      18                                                00010000D     33
     126       0              15       0                               0D     34
     126      33                                                00010000D     35
     126       0              26       0                               0D     36
     126      59                                                00010000D     37
     126       0              15       0                               0D     38
     126      74                                                00010000D     39
     126       0               4       0                               0D     40
     126      78                                                00010000D     41
     126       0              44       0                               0D     42
     126     122                                                00010000D     43
     126       0               5       0                               0D     44
     126     127                                                00010000D     45
     126       0               7       0                               0D     46
     126     134                                                00010000D     47
     126       0               4       0                               0D     48
     126     138                                                00010000D     49
     126       0              10       0                               0D     50
     126     148                                                00010000D     51
     126       0              10       0                               0D     52
     126     158                                                00010000D     53
     126       0               2       0                               0D     54
     126     160                                                00010000D     55
     126       0              10       0                               0D     56
     128     170                                                00010000D     57
     128       0     -73      18       0                               0D     58
     128     188                                                00010000D     59
     128       0     -73      17       0                               0D     60
     128     205                                                00010000D     61
     128       0     -73      13       0                               0D     62
     128     218                                                00010000D     63
     128       0     -73       6       0                               0D     64
     128     224                                                00010000D     65
     128       0     -73       6       0                               0D     66
     502     230                                                00010000D     67
     502                       5       1                               0D     68
     504     235                                                00010001D     69
     504                       3       1                               0D     70
     406     238                                                00000000D     71
     406                       1      15                               0D     72
     314     239                                                00000200D     73
     314                       1       0                               0D     74
186,3,1,0,0,1,71;                                                      1P      1
514,5,5,1,7,1,9,1,11,1,13,1;                                           3P      2
510,57,1,1,15;                                                         5P      3
510,59,2,1,17,19;                                                      7P      4
510,61,2,1,21,23;                                                      9P      5
510,63,2,1,25,27;                                                     11P      6
510,65,2,1,29,31;                                                     13P      7
508,6,0,69,1,0,0,0,69,2,0,0,0,69,3,0,0,0,69,4,1,0,0,69,5,0,0,0,       15P      8
69,4,0,0;                                                             15P      9
508,5,0,69,6,0,0,0,69,7,0,0,0,69,8,1,0,0,69,9,0,0,0,69,8,0,0;         17P     10
508,1,0,69,5,1,0;                                                     19P     11
508,4,0,69,10,0,0,0,69,11,1,0,0,69,12,0,0,0,69,11,0,0;                21P     12
508,3,0,69,1,1,0,0,69,3,1,0,0,69,2,1,0;                               23P     13
508,1,0,69,12,1,0;                                                    25P     14
508,2,0,69,6,1,0,0,69,7,1,0;                                          27P     15
508,1,0,69,10,1,0;                                                    29P     16
508,1,0,69,9,1,0;                                                     31P     17
126,9,3,0,0,1,0,0.199410225603339,0.199410225603339,                  33P     18
0.199410225603339,0.199410225603339,0.249262120548652,                33P     19
0.249262120548652,0.299114015493964,0.299114015493964,                33P     20
0.348967233350321,0.348967233350321,0.398820451206679,                33P     21
0.398820451206679,0.398820451206679,0.398820451206679,1.,1.,1.,       33P     22
1.,1.,1.,1.,1.,1.,1.,1.91229359556498D-17,1.548,0.3125,               33P     23
-0.00654224343114335,1.548,0.3125,-0.0135123134416911,                33P     24
1.54930995668763,0.312273673445775,-0.0263205104330537,               33P     25
1.5546205573027,0.311455711898673,-0.0321596390940939,                33P     26
1.55862053385069,0.310875469054279,-0.0413795884817785,               33P     27
1.56784048323838,0.309783037700892,-0.0453794690753626,               33P     28
1.57367955937557,0.309199247719113,-0.0506900000169065,               33P     29
1.58648757594802,0.308373142457399,-0.052,1.59345758295848,           33P     30
0.30814322968386,-0.052,1.6,0.30814322968386,0.199410225603339,       33P     31
0.398820451206679,0.,0.,0.;                                           33P     32
126,18,3,0,0,1,0,0.598230676810018,0.598230676810018,                 35P     33
0.598230676810018,0.598230676810018,0.64808257175533,                 35P     34
0.64808257175533,0.697934466700643,0.697934466700643,                 35P     35
0.747787684557,0.747787684557,0.797640902413357,                      35P     36
0.797640902413357,0.797640902413357,0.847494120269715,                35P     37
0.847494120269715,0.897347338126072,0.897347338126072,                35P     38
0.947199233071384,0.947199233071384,0.997051128016697,                35P     39
0.997051128016697,0.997051128016697,0.997051128016697,1.,1.,1.,       35P     40
1.,1.,1.,1.,1.,1.,1.,1.,1.,1.,1.,1.,1.,1.,1.,1.,                      35P     41
2.80014419350587D-17,1.652,0.3125,0.00654224343114337,1.652,          35P     42
0.3125,0.0135123134416913,1.65069004331237,0.312273673445775,         35P     43
0.0263205104330538,1.6453794426973,0.311455711898673,                 35P     44
0.032159639094094,1.64137946614931,0.310875469054279,                 35P     45
0.0413795884817786,1.63215951676162,0.309783037700892,                35P     46
0.0453794690753628,1.62632044062443,0.309199247719113,                35P     47
0.0506900000169067,1.61351242405198,0.308373142457399,0.052,          35P     48
1.60654241704152,0.30814322968386,0.052,1.6,0.30814322968386,         35P     49
0.052,1.59345758295848,0.30814322968386,0.0506900000169067,           35P     50
1.58648757594802,0.308373142457399,0.0453794690753628,                35P     51
1.57367955937557,0.309199247719113,0.0413795884817785,                35P     52
1.56784048323838,0.309783037700892,0.0321596390940939,                35P     53
1.55862053385069,0.310875469054279,0.0263205104330537,                35P     54
1.5546205573027,0.311455711898673,0.0135123134416911,                 35P     55
1.54930995668763,0.312273673445775,0.00654224343114337,1.548,         35P     56
0.3125,8.19554398099279D-18,1.548,0.3125,0.598230676810018,           35P     57
0.997051128016697,0.,0.,0.;                                           35P     58
126,9,3,0,0,1,0,0.398820451206679,0.398820451206679,                  37P     59
0.398820451206679,0.398820451206679,0.448673669063036,                37P     60
0.448673669063036,0.498526886919393,0.498526886919393,                37P     61
0.548378781864706,0.548378781864706,0.598230676810018,                37P     62
0.598230676810018,0.598230676810018,0.598230676810018,1.,1.,1.,       37P     63
1.,1.,1.,1.,1.,1.,1.,-0.052,1.6,0.30814322968386,-0.052,              37P     64
1.60654241704152,0.30814322968386,-0.0506900000169066,                37P     65
1.61351242405198,0.308373142457399,-0.0453794690753631,               37P     66
1.62632044062443,0.309199247719112,-0.0413795884817786,               37P     67
1.63215951676162,0.309783037700892,-0.0321596390940939,               37P     68
1.64137946614931,0.310875469054279,-0.0263205104330538,               37P     69
1.6453794426973,0.311455711898673,-0.0135123134416913,                37P     70
1.65069004331237,0.312273673445775,-0.00654224343114333,1.652,        37P     71
0.3125,1.50251639651534D-17,1.652,0.3125,0.398820451206679,           37P     72
0.598230676810018,0.,0.,0.;                                           37P     73
126,1,1,0,0,1,0,-3.76236980161269,-3.76236980161269,                  39P     74
-1.7492321113957,-1.7492321113957,1.,1.,-0.052,1.6,                   39P     75
0.30814322968386,-0.052,1.6,0.203460069792576,-3.76236980161269,      39P     76
-1.7492321113957,0.,0.,0.;                                            39P     77
126,33,3,0,1,1,1,0.,0.,0.,0.,0.0499808277026797,                      41P     78
0.0499808277026797,0.0999616554053594,0.0999616554053594,             41P     79
0.14993576511318,0.14993576511318,0.199909874821001,                  41P     80
0.199909874821001,0.249883984528823,0.249883984528823,                41P     81
0.299858094236644,0.299858094236644,0.349838921939323,                41P     82
0.349838921939323,0.399819749642003,0.399819749642003,                41P     83
0.449800577344683,0.449800577344683,0.499781405047363,                41P     84
0.499781405047363,0.549755514755184,0.549755514755184,                41P     85
0.599729624463005,0.599729624463005,0.649703734170826,                41P     86
0.649703734170826,0.699677843878647,0.699677843878647,                41P     87
0.749658671581327,0.749658671581327,0.799639499284007,                41P     88
0.799639499284007,0.799639499284007,0.799639499284007,1.,1.,1.,       41P     89
1.,1.,1.,1.,1.,1.,1.,1.,1.,1.,1.,1.,1.,1.,1.,1.,1.,1.,1.,1.,1.,       41P     90
1.,1.,1.,1.,1.,1.,1.,1.,1.,1.,-0.052,1.6,0.203460069792576,           41P     91
-0.052,1.59344083625949,0.203460069792576,-0.0506835429989168,        41P     92
1.58646411220602,0.203810281153465,-0.0453685166387886,               41P     93
1.57366106065511,0.205058893325801,-0.0413713390840108,               41P     94
1.56783223384061,0.205937511135601,-0.0321683846921198,               41P     95
1.55862927944872,0.207574168297187,-0.0263393000024095,               41P     96
1.55463161950041,0.20844087756375,-0.0135353350180043,                41P     97
1.5493162411065,0.209661996717197,-0.00655828211388725,1.548,         41P     98
0.21,0.0065582821138873,1.548,0.21,0.0135353350180043,                41P     99
1.5493162411065,0.209661996717197,0.0263393000024095,                 41P    100
1.55463161950041,0.20844087756375,0.0321683846921199,                 41P    101
1.55862927944872,0.207574168297187,0.0413713390840109,                41P    102
1.56783223384061,0.205937511135601,0.0453685166387886,                41P    103
1.57366106065511,0.205058893325801,0.0506835429989169,                41P    104
1.58646411220602,0.203810281153465,0.052,1.59344083625949,            41P    105
0.203460069792576,0.052,1.60655916374051,0.203460069792576,           41P    106
0.0506835429989169,1.61353588779398,0.203810281153465,                41P    107
0.0453685166387885,1.62633893934489,0.205058893325801,                41P    108
0.0413713390840109,1.63216776615939,0.205937511135601,                41P    109
0.0321683846921198,1.64137072055128,0.207574168297187,                41P    110
0.0263393000024096,1.64536838049959,0.20844087756375,                 41P    111
0.0135353350180045,1.6506837588935,0.209661996717197,                 41P    112
0.00655828211388729,1.652,0.21,-0.00655828211388725,1.652,0.21,       41P    113
-0.0135353350180043,1.6506837588935,0.209661996717197,                41P    114
-0.0263393000024094,1.64536838049959,0.20844087756375,                41P    115
-0.0321683846921198,1.64137072055128,0.207574168297187,               41P    116
-0.0413713390840109,1.63216776615939,0.205937511135601,               41P    117
-0.0453685166387884,1.62633893934489,0.205058893325801,               41P    118
-0.0506835429989168,1.61353588779398,0.203810281153465,-0.052,        41P    119
1.60655916374051,0.203460069792576,-0.052,1.6,0.203460069792576,      41P    120
0.,0.799639499284007,0.,0.,0.;                                        41P    121
126,4,2,0,0,0,0,0.,0.,0.,1.5707963267949,1.5707963267949,             43P    122
3.14159265358979,3.14159265358979,3.14159265358979,1.,                43P    123
0.707106781186548,1.,0.707106781186547,1.,0.21,0.,0.,0.21,0.,         43P    124
-0.21,1.28587913910472D-17,0.,-0.21,-0.21,0.,-0.21,-0.21,0.,          43P    125
-2.57175827820944D-17,0.,3.14159265358979,0.,0.,0.;                   43P    126
126,4,2,0,0,0,0,3.14159265358979,3.14159265358979,                    45P    127
3.14159265358979,4.71238898038469,4.71238898038469,                   45P    128
6.28318530717959,6.28318530717959,6.28318530717959,1.,                45P    129
0.707106781186548,1.,0.707106781186548,1.,-0.21,0.,                   45P    130
-2.57175827820944D-17,-0.21,0.,0.21,-3.85763741731416D-17,0.,         45P    131
0.21,0.21,0.,0.21,0.21,0.,5.14351655641888D-17,3.14159265358979,      45P    132
6.28318530717959,0.,0.,0.;                                            45P    133
126,1,1,0,0,1,0,-9.97871885223613,-9.97871885223613,                  47P    134
-0.931099804617086,-0.931099804617086,1.,1.,-0.21,                    47P    135
-3.49676543189026D-16,0.,-0.21,1.9,0.,-9.97871885223613,              47P    136
-0.931099804617086,0.,0.,0.;                                          47P    137
126,8,2,0,1,0,0,-3.14159265358979,-3.14159265358979,                  49P    138
-3.14159265358979,-1.5707963267949,-1.5707963267949,0.,0.,            49P    139
1.5707963267949,1.5707963267949,3.14159265358979,                     49P    140
3.14159265358979,3.14159265358979,1.,0.707106781186547,1.,            49P    141
0.707106781186548,1.,0.707106781186548,1.,0.707106781186547,1.,       49P    142
-0.21,1.9,-2.57175827820944D-17,-0.21,1.9,-0.21,                      49P    143
1.28587913910472D-17,1.9,-0.21,0.21,1.9,-0.21,0.21,1.9,0.,0.21,       49P    144
1.9,0.21,1.28587913910472D-17,1.9,0.21,-0.21,1.9,0.21,-0.21,1.9,      49P    145
2.57175827820944D-17,-3.14159265358979,3.14159265358979,0.,0.,        49P    146
0.;                                                                   49P    147
126,8,2,0,1,0,0,-3.14159265358979,-3.14159265358979,                  51P    148
-3.14159265358979,-1.5707963267949,-1.5707963267949,0.,0.,            51P    149
1.5707963267949,1.5707963267949,3.14159265358979,                     51P    150
3.14159265358979,3.14159265358979,1.,0.707106781186548,1.,            51P    151
0.707106781186548,1.,0.707106781186548,1.,0.707106781186548,1.,       51P    152
-0.3125,1.9,3.82702124733548D-17,-0.3125,1.9,0.3125,                  51P    153
1.91351062366774D-17,1.9,0.3125,0.3125,1.9,0.3125,0.3125,1.9,0.,      51P    154
0.3125,1.9,-0.3125,1.91351062366774D-17,1.9,-0.3125,-0.3125,1.9,      51P    155
-0.3125,-0.3125,1.9,-3.82702124733548D-17,-3.14159265358979,          51P    156
3.14159265358979,0.,0.,0.;                                            51P    157
126,1,1,0,0,1,0,-6.08,-6.08,0.,0.,1.,1.,-0.3125,1.9,0.,-0.3125,       53P    158
0.,0.,-6.08,0.,0.,0.,0.;                                              53P    159
126,8,2,0,1,0,0,-3.14159265358979,-3.14159265358979,                  55P    160
-3.14159265358979,-1.5707963267949,-1.5707963267949,0.,0.,            55P    161
1.5707963267949,1.5707963267949,3.14159265358979,                     55P    162
3.14159265358979,3.14159265358979,1.,0.707106781186548,1.,            55P    163
0.707106781186548,1.,0.707106781186548,1.,0.707106781186548,1.,       55P    164
-0.3125,0.,-3.82702124733548D-17,-0.3125,0.,-0.3125,                  55P    165
1.91351062366774D-17,0.,-0.3125,0.3125,0.,-0.3125,0.3125,0.,0.,       55P    166
0.3125,0.,0.3125,1.91351062366774D-17,0.,0.3125,-0.3125,0.,           55P    167
0.3125,-0.3125,0.,3.82702124733548D-17,-3.14159265358979,             55P    168
3.14159265358979,0.,0.,0.;                                            55P    169
128,1,8,1,2,0,1,0,0,1,-3.84615384615385,-3.84615384615385,            57P    170
-1.7492321113957,-1.7492321113957,-3.14159265358979,                  57P    171
-3.14159265358979,-3.14159265358979,-1.5707963267949,                 57P    172
-1.5707963267949,0.,0.,1.5707963267949,1.5707963267949,               57P    173
3.14159265358979,3.14159265358979,3.14159265358979,1.,1.,             57P    174
0.707106781186548,0.707106781186548,1.,1.,0.707106781186548,          57P    175
0.707106781186548,1.,1.,0.707106781186548,0.707106781186548,1.,       57P    176
1.,0.707106781186548,0.707106781186548,1.,1.,-0.052,1.6,              57P    177
0.203460069792576,-0.052,1.6,0.3125,-0.052,1.548,                     57P    178
0.203460069792576,-0.052,1.548,0.3125,1.91351062366774D-17,           57P    179
1.548,0.203460069792576,1.91351062366774D-17,1.548,0.3125,0.052,      57P    180
1.548,0.203460069792576,0.052,1.548,0.3125,0.052,1.6,                 57P    181
0.203460069792576,0.052,1.6,0.3125,0.052,1.652,                       57P    182
0.203460069792576,0.052,1.652,0.3125,1.91351062366774D-17,1.652,      57P    183
0.203460069792576,1.91351062366774D-17,1.652,0.3125,-0.052,           57P    184
1.652,0.203460069792576,-0.052,1.652,0.3125,-0.052,1.6,               57P    185
0.203460069792576,-0.052,1.6,0.3125,-3.84615384615385,                57P    186
-1.7492321113957,-3.14159265358979,3.14159265358979;                  57P    187
128,1,8,1,2,0,1,0,0,1,-9.97871885223613,-9.97871885223613,            59P    188
-0.931099804617086,-0.931099804617086,-3.14159265358979,              59P    189
-3.14159265358979,-3.14159265358979,-1.5707963267949,                 59P    190
-1.5707963267949,0.,0.,1.5707963267949,1.5707963267949,               59P    191
3.14159265358979,3.14159265358979,3.14159265358979,1.,1.,             59P    192
0.707106781186548,0.707106781186548,1.,1.,0.707106781186548,          59P    193
0.707106781186548,1.,1.,0.707106781186548,0.707106781186548,1.,       59P    194
1.,0.707106781186548,0.707106781186548,1.,1.,-0.21,1.9,0.,-0.21,      59P    195
-3.49676543189026D-16,0.,-0.21,1.9,-0.21,-0.21,                       59P    196
-3.49676543189026D-16,-0.21,0.,1.9,-0.21,0.,                          59P    197
-3.49676543189026D-16,-0.21,0.21,1.9,-0.21,0.21,                      59P    198
-3.49676543189026D-16,-0.21,0.21,1.9,0.,0.21,                         59P    199
-3.49676543189026D-16,0.,0.21,1.9,0.21,0.21,                          59P    200
-3.49676543189026D-16,0.21,0.,1.9,0.21,0.,-3.49676543189026D-16,      59P    201
0.21,-0.21,1.9,0.21,-0.21,-3.49676543189026D-16,0.21,-0.21,1.9,       59P    202
0.,-0.21,-3.49676543189026D-16,0.,-9.97871885223613,                  59P    203
-0.931099804617086,-3.14159265358979,3.14159265358979;                59P    204
128,1,8,1,2,0,1,0,0,1,0.,0.,6.08,6.08,-3.14159265358979,              61P    205
-3.14159265358979,-3.14159265358979,-1.5707963267949,                 61P    206
-1.5707963267949,0.,0.,1.5707963267949,1.5707963267949,               61P    207
3.14159265358979,3.14159265358979,3.14159265358979,1.,1.,             61P    208
0.707106781186548,0.707106781186548,1.,1.,0.707106781186548,          61P    209
0.707106781186548,1.,1.,0.707106781186548,0.707106781186548,1.,       61P    210
1.,0.707106781186548,0.707106781186548,1.,1.,-0.3125,1.9,0.,          61P    211
-0.3125,0.,0.,-0.3125,1.9,0.3125,-0.3125,0.,0.3125,0.,1.9,            61P    212
0.3125,0.,0.,0.3125,0.3125,1.9,0.3125,0.3125,0.,0.3125,0.3125,        61P    213
1.9,0.,0.3125,0.,0.,0.3125,1.9,-0.3125,0.3125,0.,-0.3125,0.,1.9,      61P    214
-0.3125,0.,0.,-0.3125,-0.3125,1.9,-0.3125,-0.3125,0.,-0.3125,         61P    215
-0.3125,1.9,0.,-0.3125,0.,0.,0.,6.08,-3.14159265358979,               61P    216
3.14159265358979;                                                     61P    217
128,1,1,1,1,0,0,1,0,0,-0.79475,-0.79475,0.79475,0.79475,              63P    218
-0.79475,-0.79475,0.79475,0.79475,1.,1.,1.,1.,                        63P    219
-0.312893700787402,0.,0.312893700787402,-0.312893700787402,0.,        63P    220
-0.312893700787402,0.312893700787402,0.,0.312893700787402,            63P    221
0.312893700787402,0.,-0.312893700787402,-0.79475,0.79475,             63P    222
-0.79475,0.79475;                                                     63P    223
128,1,1,1,1,0,0,1,0,0,-0.79475,-0.79475,0.79475,0.79475,              65P    224
-0.79475,-0.79475,0.79475,0.79475,1.,1.,1.,1.,                        65P    225
-0.312893700787402,1.9,-0.312893700787402,-0.312893700787402,         65P    226
1.9,0.312893700787402,0.312893700787402,1.9,-0.312893700787402,       65P    227
0.312893700787402,1.9,0.312893700787402,-0.79475,0.79475,             65P    228
-0.79475,0.79475;                                                     65P    229
502,9,3.17854264837452D-31,1.548,0.3125,-0.052,1.6,                   67P    230
0.30814322968386,3.17854264837452D-31,1.652,0.3125,-0.052,1.6,        67P    231
0.203460069792576,0.21,0.,0.,-0.21,-3.49676543189026D-16,0.,          67P    232
-0.21,1.9,-2.57175827820944D-17,-0.3125,1.9,                          67P    233
3.82702124733548D-17,-0.3125,0.,3.82702124733548D-17;                 67P    234
504,12,33,67,1,67,2,35,67,3,67,1,37,67,2,67,3,39,67,2,67,4,41,        69P    235
67,4,67,4,43,67,5,67,6,45,67,6,67,5,47,67,6,67,7,49,67,7,67,7,        69P    236
51,67,8,67,8,53,67,8,67,9,55,67,9,67,9;                               69P    237
406,1,6HSolid1;                                                       71P    238
314,99.6078431372549,99.6078431372549,100.,;                          73P    239
S      1G      3D     74P    239                                        T      1
